<svg xmlns="http://www.w3.org/2000/svg" version="1.1" xmlns:xlink="http://www.w3.org/1999/xlink" width="1000" height="1000"><g clip-path="url(#SvgjsClipPath1028)"><rect width="1000" height="1000" fill="#fafaf9"></rect><g transform="matrix(21.875,0,0,21.875,150,150)"><svg xmlns="http://www.w3.org/2000/svg" version="1.1" xmlns:xlink="http://www.w3.org/1999/xlink" width="32" height="32"><svg width="32" height="32" version="1.1" viewBox="0 0 8.4667 8.4667" xmlns="http://www.w3.org/2000/svg">
 <g transform="matrix(.060278 0 0 .060278 -19.576 .84522)" fill-opacity="0" stroke="#121212" stroke-linecap="round" stroke-linejoin="round" stroke-width="5.6444">
  <path d="m335 86.208v-57.883a2.1167 2.1167 135 0 1 2.1167-2.1167h55.767a2.1167 2.1167 45 0 1 2.1167 2.1167v55.767a2.1167 2.1167 45 0 0 2.1167 2.1167h55.767a2.1167 2.1167 135 0 0 2.1167-2.1167v-57.883" stroke-miterlimit="5"></path>
  <path d="m355 56.208h20" stroke-miterlimit="0"></path>
  <path d="m425 46.208v20" stroke-miterlimit="0"></path>
 </g>
</svg></svg></g></g><defs><clipPath id="SvgjsClipPath1028"><rect width="1000" height="1000" x="0" y="0" rx="350" ry="350"></rect></clipPath></defs></svg>